<?xml version="1.0" encoding="utf-8"?>
<!-- Generator: Adobe Illustrator 19.1.0, SVG Export Plug-In . SVG Version: 6.00 Build 0)  -->
<svg version="1.1" xmlns="http://www.w3.org/2000/svg" xmlns:xlink="http://www.w3.org/1999/xlink" x="0px" y="0px"
	 viewBox="0 0 2175 515" style="enable-background:new 0 0 2175 515;" xml:space="preserve">
<style type="text/css">
	.st0{display:none;}
	.st1{fill:#111111;}
	.st2{fill:url(#SVGID_1_);}
	.st3{fill:url(#SVGID_2_);}
</style>
<g id="Layer_1">
	<path class="st0" d="M415.9,503h-70c-49.7,0-90-40.3-90-90V3h70c49.7,0,90,40.3,90,90V503z"/>
	<circle class="st0" cx="131.4" cy="423.5" r="80"/>
	<g>
		<path class="st1" d="M825.4,457.3c-11.7,19.6-27,33.7-45.9,42.4s-40.2,13-64.1,13c-27.1,0-50.9-5.2-71.4-15.8
			c-20.5-10.5-37.4-24.7-50.8-42.7c-13.3-18-23.3-38.6-30.1-62c-6.8-23.3-10.1-47.6-10.1-72.8c0-24.3,3.4-47.7,10.1-70.4
			c6.8-22.6,16.8-42.6,30.1-59.8c13.3-17.3,30-31.2,50.1-41.7c20.1-10.5,43.4-15.8,70-15.8c21.5,0,41.9,4.6,61.2,13.7
			c19.4,9.1,34.6,22.5,45.8,40.2h1.4V3.7h9.4c49.7,0,90,40.3,90,90v409.8H873c-25.5,0-46.2-20.7-46.2-46.2v0H825.4z M821.2,278.4
			c-2.8-13.8-7.6-25.9-14.4-36.4c-6.8-10.5-15.5-19-26.2-25.5c-10.7-6.5-24.3-9.8-40.6-9.8c-16.3,0-30.1,3.3-41.3,9.8
			c-11.2,6.5-20.2,15.2-27,25.9c-6.8,10.7-11.7,23-14.7,36.8c-3,13.8-4.6,28.1-4.6,43.1c0,14,1.6,28,4.9,42
			c3.3,14,8.5,26.5,15.8,37.5c7.2,11,16.3,19.8,27.3,26.6c11,6.8,24.1,10.2,39.5,10.2c16.3,0,30-3.3,41-9.8
			c11-6.5,19.7-15.3,26.2-26.2c6.5-11,11.2-23.5,14-37.5c2.8-14,4.2-28.5,4.2-43.4C825.4,306.6,824,292.2,821.2,278.4z"/>
		<path class="st1" d="M932.4,244.1c8.9-23.6,21.5-43.6,37.8-60.2c16.3-16.6,35.9-29.4,58.8-38.5c22.9-9.1,48.5-13.7,77-13.7
			c28.5,0,54.2,4.6,77.3,13.7c23.1,9.1,42.8,21.9,59.2,38.5c16.3,16.6,28.9,36.6,37.8,60.2c8.9,23.6,13.3,49.8,13.3,78.8
			c0,28.9-4.4,55.1-13.3,78.4c-8.9,23.3-21.5,43.3-37.8,59.9c-16.3,16.6-36,29.3-59.2,38.1c-23.1,8.9-48.9,13.3-77.3,13.3
			c-28.5,0-54.1-4.4-77-13.3c-22.9-8.9-42.5-21.6-58.8-38.1c-16.3-16.6-28.9-36.5-37.8-59.9c-8.9-23.3-13.3-49.5-13.3-78.4
			C919.1,294,923.6,267.7,932.4,244.1z M1022.7,365.2c2.8,13.8,7.6,26.1,14.3,37.1c6.8,11,15.8,19.7,26.9,26.2
			c11.2,6.5,25.2,9.8,42,9.8c16.8,0,30.9-3.3,42.3-9.8c11.4-6.5,20.5-15.3,27.3-26.2c6.8-11,11.6-23.3,14.3-37.1
			c2.8-13.8,4.2-27.9,4.2-42.4c0-14.5-1.4-28.7-4.2-42.7c-2.8-14-7.6-26.4-14.3-37.1c-6.8-10.7-15.9-19.5-27.3-26.2
			c-11.4-6.8-25.5-10.1-42.3-10.1c-16.8,0-30.8,3.4-42,10.1c-11.2,6.8-20.2,15.5-26.9,26.2c-6.8,10.7-11.6,23.1-14.3,37.1
			c-2.8,14-4.2,28.2-4.2,42.7C1018.5,337.4,1019.9,351.5,1022.7,365.2z"/>
		<path class="st1" d="M1603.7,503.5l-64.4-242.9h-1.4l-61.6,242.9h-102.9l-114.8-361.9h105l66.5,245.7h1.4l60.2-245.7h96.6
			l61.6,245h1.4l66.5-245H1820l-114.1,361.9H1603.7z"/>
		<path class="st1" d="M1798.3,244.1c8.9-23.6,21.5-43.6,37.8-60.2c16.3-16.6,35.9-29.4,58.8-38.5c22.9-9.1,48.5-13.7,77-13.7
			c28.5,0,54.2,4.6,77.3,13.7c23.1,9.1,42.8,21.9,59.2,38.5c16.3,16.6,28.9,36.6,37.8,60.2c8.9,23.6,13.3,49.8,13.3,78.8
			c0,28.9-4.4,55.1-13.3,78.4c-8.9,23.3-21.5,43.3-37.8,59.9c-16.3,16.6-36,29.3-59.2,38.1c-23.1,8.9-48.9,13.3-77.3,13.3
			c-28.5,0-54.1-4.4-77-13.3c-22.9-8.9-42.5-21.6-58.8-38.1c-16.3-16.6-28.9-36.5-37.8-59.9c-8.9-23.3-13.3-49.5-13.3-78.4
			C1785,294,1789.5,267.7,1798.3,244.1z M1888.6,365.2c2.8,13.8,7.6,26.1,14.3,37.1c6.8,11,15.8,19.7,27,26.2
			c11.2,6.5,25.2,9.8,42,9.8s30.9-3.3,42.3-9.8c11.4-6.5,20.5-15.3,27.3-26.2c6.8-11,11.5-23.3,14.3-37.1
			c2.8-13.8,4.2-27.9,4.2-42.4c0-14.5-1.4-28.7-4.2-42.7s-7.6-26.4-14.3-37.1c-6.8-10.7-15.9-19.5-27.3-26.2
			c-11.4-6.8-25.5-10.1-42.3-10.1s-30.8,3.4-42,10.1c-11.2,6.8-20.2,15.5-27,26.2c-6.8,10.7-11.5,23.1-14.3,37.1s-4.2,28.2-4.2,42.7
			C1884.4,337.4,1885.8,351.5,1888.6,365.2z"/>
	</g>
</g>
<g id="Layer_2">
	<g>
		<linearGradient id="SVGID_1_" gradientUnits="userSpaceOnUse" x1="119.8639" y1="88" x2="449.8639" y2="418">
			<stop  offset="0" style="stop-color:#12005E"/>
			<stop  offset="1" style="stop-color:#4A148C"/>
		</linearGradient>
		<path class="st2" d="M364.9,503h-70c-49.7,0-90-40.3-90-90V3h70c49.7,0,90,40.3,90,90V503z"/>
		<linearGradient id="SVGID_2_" gradientUnits="userSpaceOnUse" x1="23.849" y1="366.9264" x2="136.9861" y2="480.0635">
			<stop  offset="0" style="stop-color:#12005E"/>
			<stop  offset="1" style="stop-color:#4A148C"/>
		</linearGradient>
		<circle class="st3" cx="80.4" cy="423.5" r="80"/>
	</g>
</g>
</svg>
